<svg id="Layer_1" data-name="Layer 1" xmlns="http://www.w3.org/2000/svg" viewBox="0 0 548.79 47.62"><defs><style>.cls-1{fill:#fff;}</style></defs><title>altLogo</title><path class="cls-1" d="M195.78,245.77a1.32,1.32,0,0,1-1.32,1.31,1.29,1.29,0,0,1-1.19-.79.29.29,0,0,1,0-.1l-3.21-10a1.35,1.35,0,0,1,.83-1.63,1.36,1.36,0,0,1,1.68.86l3.14,9.8A1.4,1.4,0,0,1,195.78,245.77Z" transform="translate(102.2 -218.41)"/><path class="cls-1" d="M218,236.24l-6.39,19.55a1.27,1.27,0,0,1-1.19.9h0a1.28,1.28,0,0,1-1.19-.82L206.74,250v0L204,243.33v0L201.25,250v0l-1.07,2.59a.91.91,0,0,1-.09.17v0l-1.25,3a1.35,1.35,0,0,1-.25.45,1.29,1.29,0,0,1-1.82.14,1.3,1.3,0,0,1-.4-1.37l1.4-3.42.07-.15,2.29-5.56,2-5,.64-1.56a1.29,1.29,0,0,1,.33-.46,1.25,1.25,0,0,1,.86-.32,1.32,1.32,0,0,1,.88.32,1.29,1.29,0,0,1,.33.46l2.68,6.52,2.36,5.73,5.24-16.14a1.34,1.34,0,0,1,1.64-.86A1.32,1.32,0,0,1,218,236.24Z" transform="translate(102.2 -218.41)"/><path class="cls-1" d="M77.13,245.77a1.31,1.31,0,0,1-2.51.52.29.29,0,0,1,0-.1l-3.2-10a1.33,1.33,0,0,1,.82-1.63,1.36,1.36,0,0,1,1.68.86l3.14,9.8A1.4,1.4,0,0,1,77.13,245.77Z" transform="translate(102.2 -218.41)"/><path class="cls-1" d="M99.33,236.23l-6.39,19.55a1.27,1.27,0,0,1-1.19.9h0a1.28,1.28,0,0,1-1.19-.82L88.1,250a0,0,0,0,1,0,0l-2.73-6.63v0L82.61,250v0l-1.07,2.59a.91.91,0,0,1-.09.17s0,0,0,0l-1.25,3a1.35,1.35,0,0,1-.25.45,1.29,1.29,0,0,1-1.82.14,1.3,1.3,0,0,1-.4-1.37l1.4-3.42.07-.15,2.29-5.56,2-5,.64-1.56a1.29,1.29,0,0,1,.33-.46,1.25,1.25,0,0,1,.86-.32,1.32,1.32,0,0,1,.88.32,1.29,1.29,0,0,1,.33.46l2.68,6.52,2.36,5.73,5.24-16.14a1.34,1.34,0,0,1,1.64-.86A1.32,1.32,0,0,1,99.33,236.23Z" transform="translate(102.2 -218.41)"/><path class="cls-1" d="M150.19,253a1.3,1.3,0,0,1,.17,1.85A5.32,5.32,0,0,1,141,251.4V237.14h-1.19a1.3,1.3,0,0,1,0-2.59H141v-4.18a1.32,1.32,0,0,1,1.31-1.31,1.3,1.3,0,0,1,1.31,1.31v4.18h4.63a1.3,1.3,0,1,1,0,2.59h-4.63V251.4a2.69,2.69,0,0,0,2.7,2.66,2.56,2.56,0,0,0,2-.94A1.29,1.29,0,0,1,150.19,253Z" transform="translate(102.2 -218.41)"/><path class="cls-1" d="M305.35,244.31H315c-.49-4.23-3.32-7.13-7.3-7.17h-.29a7.47,7.47,0,0,0-7.11,5.89,4.92,4.92,0,0,0-.18.78.78.78,0,0,1,0,.14c0,.11,0,.23-.06.35h0a9.4,9.4,0,0,0-.09,1.31,9.29,9.29,0,0,0,.09,1.31h0a2,2,0,0,0,.05.26l.06.36a2.22,2.22,0,0,0,.09.37l.09.36a2.7,2.7,0,0,0,.14.4,2.6,2.6,0,0,0,.15.42,5.46,5.46,0,0,0,.27.6,6.8,6.8,0,0,0,.38.7s0,0,0,0c.14.21.28.42.44.62a7.22,7.22,0,0,0,.5.6c.13.14.27.28.41.41a3.57,3.57,0,0,0,.37.31.19.19,0,0,0,.07.06l.23.18.55.37.47.26,0,0,.54.24c.19.08.39.15.58.21a1.92,1.92,0,0,0,.32.09,3.9,3.9,0,0,0,.57.13,4.58,4.58,0,0,0,.63.1l.21,0,.62,0c.33,0,.65,0,1-.05h.06l.49-.08.48-.1a3.64,3.64,0,0,0,.47-.14,5.78,5.78,0,0,0,1-.39,2.2,2.2,0,0,0,.31-.15,3.14,3.14,0,0,0,.46-.28,2.63,2.63,0,0,0,.4-.28,2.49,2.49,0,0,0,.36-.3,7,7,0,0,0,1.35-1.46,8.73,8.73,0,0,1-.61.73,7.28,7.28,0,0,0,.86-1.18,1.32,1.32,0,0,1,2.25,1.39c-.11.18-.23.32-.34.49l0,.05-.37.51-.23.27a3.47,3.47,0,0,1-.25.29c-.15.17-.3.32-.46.47a6.29,6.29,0,0,1-.47.43,2.88,2.88,0,0,1-.34.27,5.6,5.6,0,0,1-.49.36,10.27,10.27,0,0,1-1,.63c-.35.18-.71.34-1.08.49l-.1,0-.51.17a10.73,10.73,0,0,1-6.28,0,9.71,9.71,0,0,1-2-.88,10.71,10.71,0,0,1-.9-.59,11.07,11.07,0,0,1-1.22-1,11.39,11.39,0,0,1-1.05-1.25,10.64,10.64,0,0,1-1.1-1.92,12.43,12.43,0,0,1-.68-2.06c-.08-.36-.15-.72-.2-1.1a12.26,12.26,0,0,1-.12-1.73c0-.37,0-.74,0-1.11a1.64,1.64,0,0,1,0-.22,12,12,0,0,1,.25-1.5c0-.18.09-.35.14-.52s.09-.31.14-.46.18-.51.28-.76a10.21,10.21,0,0,1,1.12-2.09c.15-.21.3-.42.47-.62s.26-.32.4-.47a1.29,1.29,0,0,1,.16-.18c.16-.17.32-.33.49-.48a4.19,4.19,0,0,1,.45-.39,2.92,2.92,0,0,1,.29-.23l.23-.17c.19-.14.38-.26.58-.38s.4-.24.61-.35l.23-.11a4.9,4.9,0,0,1,.52-.24l.16-.06c.25-.1.5-.19.76-.27a7.62,7.62,0,0,1,.82-.22c.28-.06.56-.11.85-.15s.58-.06.88-.08h.89a9.62,9.62,0,0,1,8.29,5.46,12.54,12.54,0,0,1,1.25,5.6,1.32,1.32,0,0,1-1.32,1.31H305.35a1.31,1.31,0,0,1,0-2.62Z" transform="translate(102.2 -218.41)"/><path class="cls-1" d="M409.37,244.31h9.68c-.49-4.23-3.32-7.13-7.3-7.17h-.29a7.47,7.47,0,0,0-7.11,5.89,4.92,4.92,0,0,0-.18.78.78.78,0,0,1,0,.14c0,.11,0,.23-.06.35h0a9.4,9.4,0,0,0-.09,1.31,9.29,9.29,0,0,0,.09,1.31h0a2,2,0,0,0,.05.26l.06.36a2.22,2.22,0,0,0,.09.37l.09.36a2.7,2.7,0,0,0,.14.4,2.6,2.6,0,0,0,.15.42,5.46,5.46,0,0,0,.27.6,6.8,6.8,0,0,0,.38.7s0,0,0,0c.14.21.28.42.44.62a7.22,7.22,0,0,0,.5.6c.13.14.27.28.41.41a3.57,3.57,0,0,0,.37.31.19.19,0,0,0,.07.06l.23.18.55.37.47.26,0,0q.27.13.54.24c.19.08.39.15.58.21a1.92,1.92,0,0,0,.32.09,3.9,3.9,0,0,0,.57.13,4.58,4.58,0,0,0,.63.1l.21,0,.62,0c.33,0,.65,0,1-.05h.06l.49-.08.48-.1a3.64,3.64,0,0,0,.47-.14,5.78,5.78,0,0,0,1-.39,2.2,2.2,0,0,0,.31-.15,3.14,3.14,0,0,0,.46-.28,2.63,2.63,0,0,0,.4-.28,2.49,2.49,0,0,0,.36-.3,7,7,0,0,0,1.35-1.46,8.73,8.73,0,0,1-.61.73,7.28,7.28,0,0,0,.86-1.18,1.32,1.32,0,0,1,2.25,1.39c-.11.18-.23.32-.34.49l0,.05-.37.51-.23.27a3.47,3.47,0,0,1-.25.29c-.15.17-.3.32-.46.47a6.29,6.29,0,0,1-.47.43,2.88,2.88,0,0,1-.34.27,5.6,5.6,0,0,1-.49.36,10.27,10.27,0,0,1-1,.63c-.35.18-.71.34-1.08.49l-.1,0-.51.17a10.73,10.73,0,0,1-6.28,0,9.71,9.71,0,0,1-2-.88,10.71,10.71,0,0,1-.9-.59,11.07,11.07,0,0,1-1.22-1,11.39,11.39,0,0,1-1.05-1.25,10.64,10.64,0,0,1-1.1-1.92,12.43,12.43,0,0,1-.68-2.06c-.08-.36-.15-.72-.2-1.1a12.26,12.26,0,0,1-.12-1.73c0-.37,0-.74.05-1.11a1.64,1.64,0,0,1,0-.22,12,12,0,0,1,.25-1.5c0-.18.09-.35.14-.52s.09-.31.14-.46.18-.51.28-.76a10.21,10.21,0,0,1,1.12-2.09c.15-.21.3-.42.47-.62s.26-.32.4-.47a1.29,1.29,0,0,1,.16-.18c.16-.17.32-.33.49-.48a4.19,4.19,0,0,1,.45-.39,2.92,2.92,0,0,1,.29-.23l.23-.17c.19-.14.38-.26.58-.38s.4-.24.61-.35l.23-.11a4.9,4.9,0,0,1,.52-.24l.16-.06c.25-.1.5-.19.76-.27a7.62,7.62,0,0,1,.82-.22c.28-.06.56-.11.85-.15s.58-.06.88-.08h.89a9.62,9.62,0,0,1,8.29,5.46,12.54,12.54,0,0,1,1.25,5.6,1.32,1.32,0,0,1-1.32,1.31H409.37a1.31,1.31,0,0,1,0-2.62Z" transform="translate(102.2 -218.41)"/><path class="cls-1" d="M388.92,256.68a1.32,1.32,0,0,1-1.31-1.31V236.18a1.32,1.32,0,0,1,1.31-1.27,1.3,1.3,0,0,1,1.32,1.27v19.19A1.3,1.3,0,0,1,388.92,256.68Z" transform="translate(102.2 -218.41)"/><path class="cls-1" d="M436.34,253.42a1.45,1.45,0,0,1,.51.1,3.64,3.64,0,0,1-1.74-1.71,1.3,1.3,0,0,0-1.72-.66,1.37,1.37,0,0,0-.66,1.76,6.07,6.07,0,0,0,2.88,2.91,1.32,1.32,0,0,1-.58-1.09A1.31,1.31,0,0,1,436.34,253.42Z" transform="translate(102.2 -218.41)"/><path class="cls-1" d="M30,242.22a14.46,14.46,0,0,1-14.47,14.46H8.85a1.3,1.3,0,0,1-1.32-1.31v-3.73a1.32,1.32,0,0,1,2.63,0v2.42h5.32a11.87,11.87,0,1,0,0-23.73H10.16v14.73a1.32,1.32,0,0,1-2.63,0v-16a1.3,1.3,0,0,1,1.32-1.31h6.63A14.47,14.47,0,0,1,30,242.22Z" transform="translate(102.2 -218.41)"/><path class="cls-1" d="M62.74,245.57v.05a1.32,1.32,0,0,1-2.63,0v0a8.42,8.42,0,1,0-1.06,4.15,1.31,1.31,0,0,1,2.4.73,1.45,1.45,0,0,1-.1.51l-.12.22a11.06,11.06,0,1,1,1.51-5.62Z" transform="translate(102.2 -218.41)"/><path class="cls-1" d="M181.38,245.57v.05a1.32,1.32,0,0,1-2.63,0v0a8.42,8.42,0,1,0-1.06,4.15,1.31,1.31,0,0,1,2.4.73,1.45,1.45,0,0,1-.1.51l-.12.22a11.06,11.06,0,1,1,1.51-5.62Z" transform="translate(102.2 -218.41)"/><path class="cls-1" d="M292.7,229.06a1.29,1.29,0,0,1-1.32,1.27H282.9v22a1.29,1.29,0,1,1-2.58,0v-22h-8.48a1.28,1.28,0,0,1-1.31-1.27,1.3,1.3,0,0,1,1.31-1.31h19.54A1.3,1.3,0,0,1,292.7,229.06Z" transform="translate(102.2 -218.41)"/><path class="cls-1" d="M127.9,244v11.39a1.29,1.29,0,1,1-2.58,0V244c0-3.93-2.59-6.84-6.15-6.84a6.64,6.64,0,0,0-6.56,6.84v7.28a1.29,1.29,0,0,1-2.58,0V235.83a1.29,1.29,0,0,1,2.58,0v1.47a9.08,9.08,0,0,1,6.56-2.75,8.34,8.34,0,0,1,6.39,2.83A9.89,9.89,0,0,1,127.9,244Z" transform="translate(102.2 -218.41)"/><path class="cls-1" d="M246.55,244v11.39a1.29,1.29,0,1,1-2.58,0V244c0-3.93-2.59-6.84-6.15-6.84a6.64,6.64,0,0,0-6.56,6.84v7.28a1.29,1.29,0,0,1-2.58,0V235.83a1.29,1.29,0,0,1,2.58,0v1.47a9.08,9.08,0,0,1,6.56-2.75,8.34,8.34,0,0,1,6.39,2.83A9.89,9.89,0,0,1,246.55,244Z" transform="translate(102.2 -218.41)"/><path class="cls-1" d="M376.3,244v11.39a1.29,1.29,0,0,1-1.31,1.31,1.31,1.31,0,0,1-1.31-1.31V244c0-3.89-2.71-6.84-6.31-6.84s-6.35,3-6.35,6.84v8.27a1.32,1.32,0,0,1-2.63,0V229.06a1.33,1.33,0,0,1,1.31-1.31,1.3,1.3,0,0,1,1.32,1.31v8.12a8.73,8.73,0,0,1,6.35-2.63C372.45,234.55,376.3,238.61,376.3,244Z" transform="translate(102.2 -218.41)"/><path class="cls-1" d="M347.49,252.3a10.12,10.12,0,0,1-8.44,4.38c-5.94,0-10.45-4.75-10.45-11.06s4.51-11.07,10.45-11.07a10.16,10.16,0,0,1,6.37,2.15,1.56,1.56,0,0,1,.2.16,1.33,1.33,0,0,1,.38.93,1.32,1.32,0,0,1-2.23.93h0a7.53,7.53,0,0,0-4.71-1.57c-4.47,0-7.87,3.64-7.87,8.48s3.4,8.44,7.87,8.44a7.49,7.49,0,0,0,6.31-3.24,1.3,1.3,0,0,1,2.13,1.48Z" transform="translate(102.2 -218.41)"/><path class="cls-1" d="M446.59,250.29a6.26,6.26,0,0,1-1.89,4.38,7.4,7.4,0,0,1-5.33,2,8.33,8.33,0,0,1-3.48-.72l-.13-.06-.15-.08a1.32,1.32,0,0,1-.58-1.09,1.31,1.31,0,0,1,1.31-1.31,1.45,1.45,0,0,1,.51.1,5.6,5.6,0,0,0,2.52.54c3,0,4.59-1.93,4.59-3.77,0-2.42-1.47-3-4.87-3.89-2.87-.74-6.48-1.64-6.48-5.86a5.88,5.88,0,0,1,1.76-4.1,7,7,0,0,1,5-1.89,6.56,6.56,0,0,1,6.19,3.49,1.26,1.26,0,0,1-.61,1.72,1.32,1.32,0,0,1-1.77-.62,4,4,0,0,0-3.81-2c-3,0-4.14,2.09-4.14,3.4,0,2,1.32,2.54,4.51,3.32C442.61,244.59,446.59,245.58,446.59,250.29Z" transform="translate(102.2 -218.41)"/><path class="cls-1" d="M-36.6,266a.51.51,0,0,1-.51-.51V256.2a.51.51,0,0,1,.51-.52h18.07v-8.29H-46.07a.51.51,0,0,1-.51-.51v-8.8h-8.27v8.8a.51.51,0,0,1-.51.51h-8.56v8.29h18.05a.52.52,0,0,1,.52.52v9.29a.52.52,0,0,1-.52.52H-64.43a.52.52,0,0,1-.52-.52v-8.78H-83a.51.51,0,0,1-.51-.51v-9.32a.51.51,0,0,1,.51-.52h18.1V219.44h-8.26v18.12a.51.51,0,0,1-.52.51H-91.85v8.81a.51.51,0,0,1-.52.51h-8.8V265h27.53a.51.51,0,0,1,.51.52.51.51,0,0,1-.51.51h-28a.51.51,0,0,1-.52-.51V246.88a.52.52,0,0,1,.52-.52h8.8v-8.8a.51.51,0,0,1,.51-.51h18.13V218.92a.51.51,0,0,1,.51-.51h9.3a.51.51,0,0,1,.51.51v27.44h8v-8.79a.51.51,0,0,1,.52-.51h9.29a.51.51,0,0,1,.52.51v8.79H-18a.51.51,0,0,1,.51.52v9.32a.51.51,0,0,1-.51.51H-36.09v8.81A.51.51,0,0,1-36.6,266Zm-27.32-1h17.54v-8.27H-63.92Zm-18.61-9.3h17.58v-8.29H-82.53Z" transform="translate(102.2 -218.41)"/></svg>