<svg id="Layer_1" data-name="Layer 1" xmlns="http://www.w3.org/2000/svg" viewBox="0 0 439.06 266.62"><defs><style>.cls-1{fill:#fff;}</style></defs><title>logo</title><path class="cls-1" d="M218.72,361.21a1.33,1.33,0,0,1-1.32,1.31,1.31,1.31,0,0,1-1.2-.79.16.16,0,0,1,0-.1l-3.21-10a1.34,1.34,0,0,1,.83-1.63,1.36,1.36,0,0,1,1.68.86l3.14,9.8A1.4,1.4,0,0,1,218.72,361.21Z" transform="translate(-30.47 -105.51)"/><path class="cls-1" d="M240.91,351.68l-6.39,19.55a1.27,1.27,0,0,1-1.19.9h0a1.28,1.28,0,0,1-1.19-.82l-2.42-5.89a0,0,0,0,1,0,0l-2.73-6.63v0l-2.73,6.63v0L223.11,368a.91.91,0,0,1-.09.17v0l-1.25,3a1.35,1.35,0,0,1-.25.45,1.29,1.29,0,0,1-1.82.14,1.3,1.3,0,0,1-.4-1.37l1.4-3.42.07-.15,2.29-5.56,2-5,.64-1.56a1.29,1.29,0,0,1,.33-.46,1.25,1.25,0,0,1,.86-.32,1.32,1.32,0,0,1,.88.32,1.29,1.29,0,0,1,.33.46l2.68,6.52,2.36,5.73,5.24-16.14a1.34,1.34,0,0,1,1.64-.86A1.32,1.32,0,0,1,240.91,351.68Z" transform="translate(-30.47 -105.51)"/><path class="cls-1" d="M100.07,361.21a1.31,1.31,0,0,1-2.51.52.29.29,0,0,1,0-.1l-3.2-10a1.33,1.33,0,0,1,.82-1.63,1.36,1.36,0,0,1,1.68.86l3.14,9.8A1.4,1.4,0,0,1,100.07,361.21Z" transform="translate(-30.47 -105.51)"/><path class="cls-1" d="M122.27,351.67l-6.39,19.55a1.27,1.27,0,0,1-1.19.9h0a1.28,1.28,0,0,1-1.19-.82L111,365.41v0l-2.73-6.63v0l-2.73,6.63v0L104.47,368a.91.91,0,0,1-.09.17v0l-1.25,3a1.35,1.35,0,0,1-.25.45,1.29,1.29,0,0,1-1.82.14,1.3,1.3,0,0,1-.4-1.37l1.4-3.42.07-.15,2.29-5.56,2-5,.64-1.56a1.29,1.29,0,0,1,.33-.46,1.25,1.25,0,0,1,.86-.32,1.32,1.32,0,0,1,.88.32,1.29,1.29,0,0,1,.33.46l2.68,6.52,2.36,5.73,5.24-16.14a1.34,1.34,0,0,1,1.64-.86A1.32,1.32,0,0,1,122.27,351.67Z" transform="translate(-30.47 -105.51)"/><path class="cls-1" d="M173.13,368.43a1.3,1.3,0,0,1,.17,1.85,5.32,5.32,0,0,1-9.35-3.44V352.58h-1.18a1.3,1.3,0,0,1,0-2.59H164v-4.18a1.33,1.33,0,0,1,1.32-1.31,1.3,1.3,0,0,1,1.31,1.31V350h4.63a1.3,1.3,0,1,1,0,2.59h-4.63v14.26a2.69,2.69,0,0,0,2.7,2.66,2.56,2.56,0,0,0,2-.94A1.29,1.29,0,0,1,173.13,368.43Z" transform="translate(-30.47 -105.51)"/><path class="cls-1" d="M328.29,359.75H338c-.49-4.23-3.32-7.13-7.3-7.17h-.29a7.47,7.47,0,0,0-7.11,5.89,4.92,4.92,0,0,0-.18.78.78.78,0,0,1,0,.14c0,.11,0,.23-.06.35h0a9.4,9.4,0,0,0-.09,1.31,9.29,9.29,0,0,0,.09,1.31h0a2,2,0,0,0,.05.26l.06.36a2.22,2.22,0,0,0,.09.37l.09.36a2.7,2.7,0,0,0,.14.4,2.6,2.6,0,0,0,.15.42,5.46,5.46,0,0,0,.27.6,6.8,6.8,0,0,0,.38.7s0,0,0,0c.14.21.28.42.44.62a7.22,7.22,0,0,0,.5.6c.13.14.27.28.41.41a3.57,3.57,0,0,0,.37.31.19.19,0,0,0,.07.06l.23.18.55.37.47.26,0,0,.54.24c.19.08.39.15.58.21a1.92,1.92,0,0,0,.32.09,3.9,3.9,0,0,0,.57.13,4.58,4.58,0,0,0,.63.1l.21,0,.62,0c.33,0,.65,0,1-.05h.06l.49-.08.48-.1a3.64,3.64,0,0,0,.47-.14,5.78,5.78,0,0,0,1-.39,2.2,2.2,0,0,0,.31-.15,3.14,3.14,0,0,0,.46-.28,2.63,2.63,0,0,0,.4-.28,2.49,2.49,0,0,0,.36-.3,7,7,0,0,0,1.35-1.46,8.73,8.73,0,0,1-.61.73,7.28,7.28,0,0,0,.86-1.18,1.32,1.32,0,0,1,2.25,1.39c-.11.18-.23.32-.34.49l0,.05-.37.51-.23.27a3.47,3.47,0,0,1-.25.29c-.15.17-.3.32-.46.47a6.29,6.29,0,0,1-.47.43,2.88,2.88,0,0,1-.34.27,5.6,5.6,0,0,1-.49.36,10.27,10.27,0,0,1-1,.63c-.35.18-.71.34-1.08.49l-.1,0-.51.17a10.73,10.73,0,0,1-6.28,0,9.71,9.71,0,0,1-2-.88,10.71,10.71,0,0,1-.9-.59,11.07,11.07,0,0,1-1.22-1.05,11.39,11.39,0,0,1-1.05-1.25,10.64,10.64,0,0,1-1.1-1.92,12.43,12.43,0,0,1-.68-2.06c-.08-.36-.15-.72-.2-1.1a12.26,12.26,0,0,1-.12-1.73c0-.37,0-.74,0-1.11a1.64,1.64,0,0,1,0-.22,12,12,0,0,1,.25-1.5c0-.18.09-.35.14-.52s.09-.31.14-.46.18-.51.28-.76a10.21,10.21,0,0,1,1.12-2.09c.15-.21.3-.42.47-.62s.26-.32.4-.47a1.29,1.29,0,0,1,.16-.18c.16-.17.32-.33.49-.48a4.19,4.19,0,0,1,.45-.39,2.92,2.92,0,0,1,.29-.23l.23-.17c.19-.14.38-.26.58-.38s.4-.24.61-.35l.23-.11a4.9,4.9,0,0,1,.52-.24l.16-.06c.25-.1.5-.19.76-.27a7.62,7.62,0,0,1,.82-.22c.28-.06.56-.11.85-.15s.58-.06.88-.08h.89a9.62,9.62,0,0,1,8.29,5.46,12.54,12.54,0,0,1,1.25,5.6,1.32,1.32,0,0,1-1.32,1.31H328.29a1.31,1.31,0,0,1,0-2.62Z" transform="translate(-30.47 -105.51)"/><path class="cls-1" d="M432.3,359.75H442c-.49-4.23-3.32-7.13-7.3-7.17h-.29a7.47,7.47,0,0,0-7.11,5.89,4.92,4.92,0,0,0-.18.78.78.78,0,0,1,0,.14c0,.11,0,.23-.06.35h0a9.4,9.4,0,0,0-.09,1.31,9.29,9.29,0,0,0,.09,1.31h0a2,2,0,0,0,.05.26l.06.36a2.22,2.22,0,0,0,.09.37l.09.36a2.7,2.7,0,0,0,.14.4,2.6,2.6,0,0,0,.15.42,5.46,5.46,0,0,0,.27.6,6.8,6.8,0,0,0,.38.7s0,0,0,0c.14.21.28.42.44.62a7.22,7.22,0,0,0,.5.6c.13.14.27.28.41.41a3.57,3.57,0,0,0,.37.31.19.19,0,0,0,.07.06l.23.18.55.37.47.26,0,0,.54.24c.19.08.39.15.58.21a1.92,1.92,0,0,0,.32.09,3.9,3.9,0,0,0,.57.13,4.58,4.58,0,0,0,.63.1l.21,0,.62,0c.33,0,.65,0,1-.05h.06l.49-.08.48-.1a3.64,3.64,0,0,0,.47-.14,5.78,5.78,0,0,0,1-.39,2.2,2.2,0,0,0,.31-.15,3.14,3.14,0,0,0,.46-.28,2.63,2.63,0,0,0,.4-.28,2.49,2.49,0,0,0,.36-.3,7,7,0,0,0,1.35-1.46,8.73,8.73,0,0,1-.61.73,7.28,7.28,0,0,0,.86-1.18,1.32,1.32,0,0,1,2.25,1.39c-.11.18-.23.32-.34.49l0,.05-.37.51-.23.27a3.47,3.47,0,0,1-.25.29c-.15.17-.3.32-.46.47a6.29,6.29,0,0,1-.47.43,2.88,2.88,0,0,1-.34.27,5.6,5.6,0,0,1-.49.36,10.27,10.27,0,0,1-1,.63c-.35.18-.71.34-1.08.49l-.1,0-.51.17a10.73,10.73,0,0,1-6.28,0,9.71,9.71,0,0,1-2-.88,10.71,10.71,0,0,1-.9-.59,11.07,11.07,0,0,1-1.22-1.05,11.39,11.39,0,0,1-1.05-1.25,10.64,10.64,0,0,1-1.1-1.92,12.43,12.43,0,0,1-.68-2.06c-.08-.36-.15-.72-.2-1.1a12.26,12.26,0,0,1-.12-1.73c0-.37,0-.74.05-1.11a1.64,1.64,0,0,1,0-.22,12,12,0,0,1,.25-1.5c0-.18.09-.35.14-.52s.09-.31.14-.46.18-.51.28-.76a10.21,10.21,0,0,1,1.12-2.09c.15-.21.3-.42.47-.62s.26-.32.4-.47a1.29,1.29,0,0,1,.16-.18c.16-.17.32-.33.49-.48a4.19,4.19,0,0,1,.45-.39,2.92,2.92,0,0,1,.29-.23l.23-.17c.19-.14.38-.26.58-.38s.4-.24.61-.35l.23-.11a4.9,4.9,0,0,1,.52-.24l.16-.06c.25-.1.5-.19.76-.27a7.62,7.62,0,0,1,.82-.22c.28-.06.56-.11.85-.15s.58-.06.88-.08h.89a9.62,9.62,0,0,1,8.29,5.46,12.54,12.54,0,0,1,1.25,5.6,1.32,1.32,0,0,1-1.32,1.31H432.3a1.31,1.31,0,0,1,0-2.62Z" transform="translate(-30.47 -105.51)"/><path class="cls-1" d="M411.86,372.12a1.32,1.32,0,0,1-1.31-1.31V351.62a1.32,1.32,0,0,1,1.31-1.27,1.3,1.3,0,0,1,1.32,1.27v19.19A1.3,1.3,0,0,1,411.86,372.12Z" transform="translate(-30.47 -105.51)"/><path class="cls-1" d="M459.28,368.86a1.45,1.45,0,0,1,.51.1,3.64,3.64,0,0,1-1.74-1.71,1.3,1.3,0,0,0-1.72-.66,1.37,1.37,0,0,0-.66,1.76,6.07,6.07,0,0,0,2.88,2.91,1.32,1.32,0,0,1-.58-1.09A1.31,1.31,0,0,1,459.28,368.86Z" transform="translate(-30.47 -105.51)"/><path class="cls-1" d="M52.89,357.66a14.46,14.46,0,0,1-14.47,14.46H31.79a1.3,1.3,0,0,1-1.32-1.31v-3.73a1.32,1.32,0,0,1,2.63,0v2.42h5.32a11.87,11.87,0,1,0,0-23.73H33.1V360.5a1.32,1.32,0,0,1-2.63,0v-16a1.3,1.3,0,0,1,1.32-1.31h6.63A14.47,14.47,0,0,1,52.89,357.66Z" transform="translate(-30.47 -105.51)"/><path class="cls-1" d="M85.68,361v.05a1.32,1.32,0,0,1-2.63,0v0A8.42,8.42,0,1,0,82,365.17a1.31,1.31,0,0,1,2.4.73,1.45,1.45,0,0,1-.1.51l-.12.22A11.06,11.06,0,1,1,85.68,361Z" transform="translate(-30.47 -105.51)"/><path class="cls-1" d="M204.32,361v.05a1.32,1.32,0,0,1-2.63,0v0a8.42,8.42,0,1,0-1.06,4.15,1.31,1.31,0,0,1,2.4.73,1.45,1.45,0,0,1-.1.51l-.12.22a11.06,11.06,0,1,1,1.51-5.62Z" transform="translate(-30.47 -105.51)"/><path class="cls-1" d="M315.64,344.5a1.29,1.29,0,0,1-1.32,1.27h-8.48v22a1.29,1.29,0,1,1-2.58,0v-22h-8.48a1.28,1.28,0,0,1-1.31-1.27,1.3,1.3,0,0,1,1.31-1.31h19.54A1.3,1.3,0,0,1,315.64,344.5Z" transform="translate(-30.47 -105.51)"/><path class="cls-1" d="M150.84,359.42v11.39a1.29,1.29,0,1,1-2.58,0V359.42c0-3.93-2.59-6.84-6.15-6.84a6.64,6.64,0,0,0-6.56,6.84v7.28a1.29,1.29,0,0,1-2.58,0V351.27a1.29,1.29,0,0,1,2.58,0v1.47a9.08,9.08,0,0,1,6.56-2.75,8.34,8.34,0,0,1,6.39,2.83A9.89,9.89,0,0,1,150.84,359.42Z" transform="translate(-30.47 -105.51)"/><path class="cls-1" d="M269.48,359.42v11.39a1.29,1.29,0,1,1-2.58,0V359.42c0-3.93-2.59-6.84-6.15-6.84a6.64,6.64,0,0,0-6.56,6.84v7.28a1.29,1.29,0,0,1-2.58,0V351.27a1.29,1.29,0,0,1,2.58,0v1.47a9.08,9.08,0,0,1,6.56-2.75,8.34,8.34,0,0,1,6.39,2.83A9.89,9.89,0,0,1,269.48,359.42Z" transform="translate(-30.47 -105.51)"/><path class="cls-1" d="M399.24,359.42v11.39a1.29,1.29,0,0,1-1.31,1.31,1.31,1.31,0,0,1-1.31-1.31V359.42c0-3.89-2.71-6.84-6.31-6.84s-6.35,2.95-6.35,6.84v8.27a1.32,1.32,0,0,1-2.63,0V344.5a1.33,1.33,0,0,1,1.31-1.31A1.3,1.3,0,0,1,384,344.5v8.12a8.73,8.73,0,0,1,6.35-2.63C395.39,350,399.24,354.05,399.24,359.42Z" transform="translate(-30.47 -105.51)"/><path class="cls-1" d="M370.43,367.74a10.12,10.12,0,0,1-8.44,4.38c-5.94,0-10.45-4.75-10.45-11.06S356.05,350,362,350a10.16,10.16,0,0,1,6.37,2.15,1.56,1.56,0,0,1,.2.16,1.33,1.33,0,0,1,.38.93,1.32,1.32,0,0,1-2.23.93,0,0,0,0,0,0,0,7.53,7.53,0,0,0-4.71-1.57c-4.47,0-7.87,3.64-7.87,8.48s3.4,8.44,7.87,8.44a7.49,7.49,0,0,0,6.31-3.24,1.3,1.3,0,0,1,2.13,1.48Z" transform="translate(-30.47 -105.51)"/><path class="cls-1" d="M469.53,365.73a6.26,6.26,0,0,1-1.89,4.38,7.4,7.4,0,0,1-5.33,2,8.33,8.33,0,0,1-3.48-.72l-.13-.06-.15-.08a1.32,1.32,0,0,1-.58-1.09,1.31,1.31,0,0,1,1.31-1.31,1.45,1.45,0,0,1,.51.1,5.6,5.6,0,0,0,2.52.54c3,0,4.59-1.93,4.59-3.77,0-2.42-1.47-3-4.87-3.89-2.87-.74-6.48-1.64-6.48-5.86a5.88,5.88,0,0,1,1.76-4.1,7,7,0,0,1,5-1.89,6.56,6.56,0,0,1,6.19,3.49,1.26,1.26,0,0,1-.61,1.72,1.32,1.32,0,0,1-1.77-.62,4,4,0,0,0-3.81-2c-3,0-4.14,2.09-4.14,3.4,0,2,1.32,2.54,4.51,3.32C465.55,360,469.53,361,469.53,365.73Z" transform="translate(-30.47 -105.51)"/><path class="cls-1" d="M363.7,320a2.32,2.32,0,0,1-2.32-2.32v-42a2.32,2.32,0,0,1,2.32-2.32h81.39V236h-124a2.31,2.31,0,0,1-2.32-2.31v-39.6H281.52v39.6A2.31,2.31,0,0,1,279.2,236H240.67v37.34H322a2.32,2.32,0,0,1,2.32,2.32v41.86a2.31,2.31,0,0,1-2.32,2.31H238.36a2.31,2.31,0,0,1-2.32-2.31V278H154.53a2.31,2.31,0,0,1-2.31-2.31v-42a2.3,2.3,0,0,1,2.31-2.31H236V110.13H198.81v81.62a2.32,2.32,0,0,1-2.31,2.32H114.88v39.65a2.31,2.31,0,0,1-2.32,2.31H72.91v79.31h124a2.32,2.32,0,0,1,0,4.63H70.6a2.32,2.32,0,0,1-2.32-2.32V233.72a2.31,2.31,0,0,1,2.32-2.31h39.65V191.75a2.31,2.31,0,0,1,2.31-2.31h81.62V107.82a2.31,2.31,0,0,1,2.32-2.31h41.86a2.3,2.3,0,0,1,2.31,2.31V231.41h36.22v-39.6a2.32,2.32,0,0,1,2.31-2.32h41.87a2.32,2.32,0,0,1,2.31,2.32v39.6h124a2.31,2.31,0,0,1,2.32,2.31v42A2.32,2.32,0,0,1,447.4,278H366v39.65A2.31,2.31,0,0,1,363.7,320Zm-123-4.74h79V278h-79Zm-83.83-41.86H236V236h-79.2Z" transform="translate(-30.47 -105.51)"/></svg>